<svg id="print" xmlns="http://www.w3.org/2000/svg" viewBox="0 0 768 768"><defs><style>.cls-1{fill:#efeff0;}</style></defs><title>ring-print2</title><path class="cls-1" d="M383,71h-5.58c-2.15,0-4.28.09-6.42.18l.07,2C375,73.08,379,73,383,73V71Zm-24,.9c-4,.3-8,.68-11.95,1.13l.23,2c3.93-.45,7.92-.83,11.87-1.12l-.15-2Zm-23.84,2.72-.12,0h-.13c-3.24.49-6.46,1-9.68,1.64h0l-.09,0h0l-.09,0h-.11l-.07,0h0l-1.46.28.38,2c3.89-.74,7.84-1.43,11.75-2l-.3-2Zm-23.56,4.53q-3.48.81-6.93,1.69h0l-.35.09h0l-.07,0h0l-.07,0h0L304,81h0l-.06,0h-.1l-.06,0h-.05l-.09,0h-.11l0,0h-.11l-.21.06h0l-.09,0h0l-.22.06h0l-.1,0h0l-2.66.71.53,1.93c3.82-1,7.7-2,11.56-2.92l-.45-1.95Zm-23.15,6.33h0l-.08,0-.06,0h0l-.07,0h0l-.24.08h0l-.08,0h0c-1.34.42-2.68.86-4,1.3h0l-.35.12h0l-.08,0h0l-.34.12h0l-.08,0h0l-.24.08h0l-.06,0h0l-.25.09h0l-.08,0h0l-.06,0h0l-.21.07h0l-.06,0,0,0-.06,0h0l-.1,0h-.05l-.05,0,0,0-.05,0h-.06l-.05,0-.09,0-.05,0-.05,0H281L281,88l0,0-.05,0-.09,0,0,0h-.06l-.05,0-.05,0h0l-.21.08h0l-.06,0,0,0-.06,0h0l-.11,0h0l-.06,0,0,0-.06,0h0l-.24.08h0l-.08,0h0l-.34.12h0l-1.94.69.67,1.88c3.73-1.34,7.53-2.61,11.3-3.8l-.6-1.91Zm-22.59,8.09c-3.71,1.49-7.4,3.06-11,4.69l.82,1.83c3.61-1.62,7.3-3.19,11-4.67l-.75-1.85Zm-21.9,9.8q-5.39,2.67-10.65,5.53l1,1.75c3.47-1.88,7-3.73,10.58-5.49l-.89-1.79ZM222.9,114.83l-1.4.83h0l-.09.06h0l-.19.11,0,0-.06,0,0,0,0,0-.05,0,0,0-.2.12h0l-.07.05h0q-4,2.43-7.94,5l1.09,1.68c3.32-2.15,6.73-4.26,10.13-6.28l-1-1.72Zm-20.15,13-2.77,2h0l-.07,0,0,0-.06,0,0,0-.07.05,0,0-.06,0,0,0,0,0-.05,0,0,0-.05,0h0l-.13.1h0l-.07,0h0l-.06.05h0q-2.15,1.56-4.28,3.15h0l-.06.05,0,0-.05,0h0l-.11.08,0,0,0,0,0,0-.05,0,0,0,0,0-.08.06h0l-.08.07h0l-.07.05,0,0-.08.06h0l-.84.64,1.21,1.59c3.15-2.4,6.39-4.76,9.63-7l-1.15-1.63Zm-19.1,14.52q-4.64,3.83-9.12,7.8l1.33,1.5c3-2.63,6-5.24,9.06-7.75l-1.27-1.55Zm-17.93,15.94-1.62,1.56h0L164,160h0l-.26.25h0l-.13.13h0l-.12.11,0,0-.12.11,0,0-.1.09,0,0-.11.11,0,0-.1.1,0,0-.09.09,0,0-.11.11,0,0-.08.08,0,0-.1.1,0,.05-.08.07-.06.06-.07.08-.06,0L162,162l-.06.06-.06.06-.06.06-.09.08-.06.07-.05.05-.1.09,0,0-.07.07,0,0-.11.12,0,0L161,163l0,0-.13.13,0,0-.08.08h0l-.15.15h0l-.24.24h0c-1,1-2.06,2.09-3.09,3.15l1.44,1.39c2.75-2.85,5.59-5.68,8.45-8.42l-1.38-1.44ZM149,175.57c-2.14,2.38-4.24,4.81-6.3,7.25h0l-.22.27,0,0-.05.06,0,0,0,.05,0,0,0,.05-.06.06,0,0,0,.05,0,0,0,0v0l-.9,1.07,1.54,1.28c2.53-3.05,5.15-6.09,7.79-9L149,175.57ZM133.72,194q-2.44,3.19-4.82,6.45h0l-.2.29,0,0,0,.05,0,0,0,.06,0,0-.07.09,0,0,0,0,0,0,0,0,0,.06,0,0-.06.08h0l-.07.09v0l0,.07,0,0-.05.07v0l-.14.18h0l-.06.09h0l-1.22,1.72,1.63,1.15c2.29-3.22,4.67-6.45,7.08-9.59L133.72,194Zm-13.87,19.58-.23.35h0l-.06.1h0l-.13.2h0l-.06.09h0l0,.09h0l-.12.19,0,0,0,.07,0,0,0,.08v0L119,215h0l0,.08,0,0,0,.06,0,0,0,.07,0,0,0,.08,0,0,0,.05,0,0,0,.05,0,.05,0,0,0,0,0,.09,0,0,0,.05,0,0,0,.05,0,0,0,.05,0,.07,0,0,0,.05,0,0,0,.05,0,0,0,.05,0,0-.07.11v0l0,.06,0,0,0,.06,0,0,0,.06v0l-.08.13h0l0,.07,0,0,0,.06v0l-.18.29,0,0,0,.07h0l-.15.23h0l0,.08h0c-.09.13-.17.26-.25.39h0q-1.55,2.46-3,5h0l-.24.4h0l0,.08h0l-.09.15,1.71,1c2-3.39,4.16-6.79,6.33-10.11l-1.68-1.09ZM107.51,234.2c-.89,1.62-1.76,3.26-2.63,4.9h0l0,.1h0l-.11.2h0l0,.09,0,0,0,.06,0,0,0,.06,0,.06,0,.06,0,.06,0,0,0,.06,0,0c-.83,1.6-1.66,3.21-2.46,4.83l1.78.89c1.77-3.53,3.63-7.09,5.54-10.56l-1.76-1ZM96.79,255.66c-.93,2-1.83,4.11-2.72,6.18h0c0,.11-.09.22-.14.33v0l0,.06,0,0,0,.06v0l0,.08,0,.06v0l0,.06v0l0,.07,0,0,0,.11h0l0,.1v0l0,.09h0c-.51,1.19-1,2.38-1.49,3.58l1.85.75c1.5-3.66,3.08-7.35,4.71-10.95l-1.82-.83Zm-9.05,22.23-.84,2.36v0l0,.06,0,.05,0,.05,0,.1h0l0,.09v0l0,.09h0q-1.47,4.22-2.84,8.47l1.9.61c1.21-3.76,2.5-7.56,3.85-11.28l-1.88-.68Zm-7.31,22.85c-.7,2.52-1.37,5.06-2,7.6h0c0,.12-.06.23-.08.34v0l0,.06v0l0,.13v.13l0,.05v.11l0,.09v0l0,.08v0l0,.08v0l0,.1h0l0,.11h0l0,.11h0l-.59,2.41,2,.46c.91-3.85,1.91-7.73,3-11.54l-1.93-.54ZM74.9,324.09c-.16.83-.32,1.65-.47,2.48h0l-.05.27h0v.1l0,.26h0l0,.08v0l0,.08h0l0,.26v0l0,.08v0l0,.26h0v.1l-.06.35h0q-.67,3.67-1.25,7.4l2,.31c.62-3.91,1.31-7.86,2.08-11.74l-2-.39Zm-3.72,23.7c-.37,3.15-.7,6.32-1,9.5v.82c0,.54-.1,1.09-.14,1.62l2,.16c.31-3.94.7-7.94,1.17-11.86l-2-.24Zm-1.9,23.92c0,.56,0,1.09-.07,1.65h0v1.42h0v.27h0c0,.12,0,.24,0,.37h0c0,.59,0,1.18,0,1.78h0v.09h0v2h0v.25h0v.25h0c0,1.29,0,2.6,0,3.9h2c0-4,.11-8,.27-11.93l-2-.08Zm1.9,23.94-2,.07q.19,6,.63,12l2-.15c-.28-3.94-.49-7.94-.62-11.9Zm1.7,23.78-2,.22c.39,3.6.85,7.16,1.36,10.72v.14l0,.11v0l0,.09v.2l0,.24h0l.06.37,2-.3c-.58-3.91-1.09-7.89-1.52-11.82ZM76.38,443l-2,.37c.06.35.13.7.2,1.05v0l0,.1v0l0,.11h0l0,.1v0l0,.08v0l0,.1h0l0,.11v0l0,.07v0l0,.07v0l0,.1v0l0,.07v.16l0,.09v.34l0,.07v.28l0,.08v.23l0,.06v0l0,.1v.05l0,.06v.16l0,.1v0l0,.08v.15l0,.09h0l0,.11v0l0,.08v0l0,.09v0l0,.1v0l0,.09v0l0,.11h0l0,.23v0c.44,2.13.9,4.24,1.38,6.36l2-.45c-.88-3.85-1.7-7.78-2.43-11.67Zm5.31,23.24-1.94.52c.2.74.4,1.48.61,2.21h0l0,.11h0l.06.23h0l0,.1v0l0,.09v0l.06.21v0l0,.07v0l0,.07v0l0,.09v.05l0,.06v.05l0,0v.05l0,.06,0,.1,0,0v.1l0,.06v0l.07.24h0l0,.08v0q1,3.6,2.13,7.17l1.91-.59c-1.17-3.78-2.29-7.63-3.31-11.46ZM88.76,489l-1.89.67q1.83,5.15,3.82,10.22h0l0,.1h0l.08.21v0l0,.08v0l0,.08v0l0,.1,0,0,0,.06,0,.05,0,0,0,.05,0,.05,0,.05,1.86-.74c-1.46-3.67-2.87-7.43-4.19-11.16Zm8.81,22.16-1.83.81c.53,1.19,1.07,2.39,1.61,3.58v0l0,.07v0l.07.15h0l0,.07,0,0,0,.06,0,0,0,0,0,.08v0l0,.08,0,0,0,.08v0l0,.09h0l.1.21h0l.05.1h0q.9,1.93,1.83,3.87h0l0,.09h0l0,.1h0l0,.1v0l0,.06,0,0,0,.06,0,0,0,.06,0,.08,0,.05,0,0,0,0,0,.06v0l.6,1.25,1.8-.88c-1.74-3.55-3.43-7.19-5-10.8Zm10.48,21.41-1.76.95.53,1h0l0,.07v0l.11.21,0,0,0,0,0,.05,0,0,0,0,0,.05.05.09v0l0,.07,0,0,0,.08v0l0,.09h0l.11.2h0l0,.09h0a3.07,3.07,0,0,1,.17.31h0c1.45,2.64,2.94,5.27,4.47,7.86l1.72-1c-2-3.41-4-6.91-5.84-10.39Zm12.09,20.55-1.69,1.08.3.46v0l0,.07h0l.13.2,0,0,0,.05,0,0,0,0,0,.06,0,0,.06.09v0l0,.07,0,0,0,.07,0,0,.12.19h0l0,.08v0l0,.08h0l.19.29h0l1.49,2.27h0l.19.29h0l.06.09h0l.06.08h0l.13.19v0l.05.08h0l.06.09h0l.06.09h0l0,.08,0,0,0,.06,0,0,0,.06,0,0,.06.09,0,0,0,.05,0,0,0,0,0,.05,0,0,.13.19,0,0,0,.06v0l0,.06h0a3.28,3.28,0,0,1,.2.31h0c.77,1.13,1.54,2.27,2.33,3.39l1.64-1.14c-2.26-3.25-4.49-6.58-6.62-9.91Zm13.62,19.57-1.6,1.2.93,1.22h0l.06.09h0l.06.08h0l.07.09,0,0,0,.06,0,0,0,0,0,0,0,0,.21.27h0c.47.62,1,1.23,1.43,1.85h0a3,3,0,0,0,.22.28l0,0,0,0,0,0,0,.06h0l.08.11,0,0,0,0,0,.05,0,0,.05.06,0,0,.07.08h0l.06.08,0,0,.05.07,0,0c1.18,1.5,2.38,3,3.59,4.48l1.55-1.26c-2.5-3.07-5-6.23-7.36-9.38Zm15.07,18.47-1.5,1.32,0,0,.06.07.06.06,0,.07.06.06.08.09,0,.05.1.11,0,0,.1.11,0,0,.11.13h0l.24.27h0c.91,1,1.83,2,2.75,3.06h0l.24.27h0l.12.13h0l.12.13h0l.12.12,0,0,.11.12h0l.1.12,0,0,.11.11,0,0,.08.09,0,0,.09.1,0,.05.07.07.07.08.06.06,0,.06.06.06.09.1,0,0,.22.24h0c.78.84,1.59,1.7,2.38,2.53l1.45-1.38c-2.73-2.86-5.44-5.82-8-8.79Zm16.43,17.28-1.4,1.43.4.39h0l.13.12h0l.12.12,0,0,.11.11,0,0,.08.08,0,0,.1.09.05.06.06,0,.1.09.05,0,.07.07,0,0,.12.11,0,0,.24.22,0,0,.66.63h0l.68.64h0l.26.24h0l.17.16h0l.25.23v0l.25.23h0l.15.14,0,0,.08.07v0l.14.12,0,0,.13.12,0,0,.07.06,0,0,.1.1,0,0,.06.05.07.07.08.07.07.06.05.05.1.09.05.05.07.07,0,0,.1.09,0,.05.09.08,0,.05.09.08,0,0,.11.1,0,0,.09.08,0,0,.11.11,0,0,.1.09,0,0,.1.09,0,0,.11.1,0,0,.09.09,0,0,.11.1,0,0,.1.08,0,0,.11.09,0,0,.11.1,0,0,.08.08.05,0,.1.09,0,0,.08.08.06,0,.08.08.06,0,.07.06.09.08,0,0,.06.06,0,0,.14.12,0,0,.16.14h0l0,0,1.35-1.48c-2.94-2.66-5.87-5.4-8.7-8.16Zm17.69,16L181.67,626l2.09,1.74h0l.29.23h0l.06,0h0l.07,0h0l.14.11h0l.06.05,0,0,0,0,0,0,.05,0,0,0,.07.06,0,0,0,0,0,0,0,0,0,0,0,0,.08.07h0l.08.06,0,0,.07.06h0l.07.06h0l.17.14h0l.08.07h0q2.72,2.21,5.47,4.33l1.22-1.58c-3.12-2.42-6.25-4.93-9.29-7.47ZM201.81,639l-1.16,1.63q4.88,3.48,9.89,6.78l1.1-1.67c-3.3-2.17-6.61-4.44-9.83-6.74Zm19.91,13.11-1,1.71.15.09h0l.06,0h0l.07,0h0l.12.07,0,0,0,0,0,0,0,0,0,0,0,0,0,0,.08.05.05,0,0,0,.06,0,0,0,.05,0,0,0,.09.05h0l.07,0,0,0,.07,0,0,0,.07,0,0,0,.09.05h0l.07,0h0l.07,0,0,0,.09,0h0l.09,0,0,0,.07,0,0,0,.07,0h0l.09.06h0l.09,0,0,0,.07,0,0,0,.07,0h0l.09.06h0l.07,0,0,0,.06,0,0,0,.06,0h0l.09.06h0l.06,0,0,0,.06,0,0,0,.05,0,.07,0,0,0,.05,0,.05,0,0,0,0,0,.05,0,.05,0,.06,0,.06,0,.05,0,0,0,.05,0h0l.06,0h0l.13.08h0l.07,0,0,0,.06,0,0,0,.21.12h0l.06,0,0,0,.06,0h0l.22.13h0l.07,0h0l.07,0h0l.24.14h0l.07,0h0l.32.18h0l.4.24h0l.08,0s0,0,0,0l.32.18h0l.31.18h0l.06,0h0l.06,0h0l.12.07h0l.06,0,0,0,.06,0,0,0,.06,0,0,0,.06,0,.06,0,.05,0,0,0,0,0,.06,0,0,0,.1,0h0l.08,0,0,0,.07,0h0l.09,0h0l.2.11h0l1.68.94,1-1.74c-3.46-1.92-6.93-3.93-10.32-6Zm20.86,11.55-.9,1.79q4.68,2.35,9.44,4.56h0l.07,0h0l.22.1,0,0,.05,0,.05,0,0,0,.05,0h0l.1,0h0l.07,0,0,0,.07,0,0,0,.21.09h0l.1,0h0l.12.06.83-1.82c-3.59-1.65-7.21-3.39-10.74-5.17Zm21.68,9.92-.76,1.85c1.06.44,2.13.87,3.21,1.3h0l.08,0h0l.25.1h0l.07,0h0l.06,0h0l.22.08,0,0,.06,0,0,0,.06,0,0,0,.08,0,.06,0,0,0,.05,0,.05,0,.06,0h0l.1,0h0l.09,0h0l.08,0h0l.21.09h0l.11,0h0c1.86.73,3.72,1.44,5.6,2.13h0l.11,0h0l.2.08.69-1.88c-3.71-1.37-7.45-2.82-11.11-4.33Zm22.38,8.23-.62,1.9,2.49.8h0l.34.11h0l.34.11h0l.07,0h0l.24.08h0l.08,0h0l.07,0h0l.12,0h0l.06,0,0,0h.06l.05,0,0,0,.1,0,0,0,.06,0h0l.06,0h0l.1,0h0l.1,0h0l.08,0h0l.08,0h0l.11,0h0l.09,0h0l.09,0h0l.11,0h0l.11,0h0l.09,0h0l.22.07h0l.11,0h0l.35.1h0l.46.14h0c1.31.39,2.63.78,3.95,1.15h0l.11,0h0l.11,0h0l.22.06h0l.1,0h0l.11,0,.55-1.93c-3.81-1.07-7.65-2.23-11.41-3.45Zm22.94,6.47-.47,2c1.24.3,2.49.59,3.73.87h0l.27.07h0l.09,0h0l.08,0h0l.17,0h0l.07,0h0l.07,0h0l.24.06h0l.07,0h.1l.07,0,.08,0h.21l.06,0h.08l.06,0h.16l.07,0h0l.1,0h.15l.07,0h0l.1,0h.15l.07,0h0l.09,0h0l.08,0H316l.08,0h0l.1,0h.15l.08,0h0l.1,0h0l.08,0h.15l.11,0h0l.1,0h0l.08,0h0l.09,0h0l.11,0h0l.09,0h.14l.11,0h0l.08,0h0l.08,0h0l.11,0h0l.1,0h.15l.08,0h0l.11,0h0l.08,0h.15l.1,0h.15l.07,0h0l.11,0h0l.08,0h.21l.09,0H320l.06,0h0l.09,0h.33l.1,0h.22l.39-2c-3.88-.77-7.8-1.64-11.64-2.57ZM333,693l-.32,2c2.88.47,5.76.89,8.66,1.27h0l.12,0h0l.24,0h0l.09,0h.45l.25,0h0l2,.26.24-2c-3.93-.48-7.9-1-11.81-1.67Zm23.67,2.89-.17,2h.95l.25,0h.11l.27,0h0c2.48.2,5,.36,7.47.5h0l.26,0H367l1.46.07.09-2c-4-.18-8-.44-11.9-.77Zm35.75,1c-3.11.09-6.26.14-9.37.14h-2.56l0,2h6q3,0,6-.12l-.06-2Zm23.79-1.6c-3.93.41-7.93.76-11.88,1l.13,2,2.06-.14h0l.35,0H408l.24,0h.13q3.36-.27,6.69-.61h0l.36,0h.13l.24,0h.26l.11,0h.16l-.21-2Zm23.59-3.41c-3.89.72-7.84,1.37-11.76,1.93l.28,2c4-.57,7.93-1.22,11.85-1.94l-.37-2ZM463,686.64c-3.83,1-7.72,2-11.59,2.83l.44,1.95.13,0h0l.1,0h0l.11,0h.16l.05,0h.11l.1,0h0l.07,0h.12l.26-.06h0l.09,0h0l2.37-.55h0l.36-.08h0l.08,0h0l.14,0h0l.06,0h.1l.05,0h0l.1,0h0l.07,0h.15l.21-.06h0l.1,0h0q3.15-.76,6.29-1.59l-.51-1.94Zm22.79-7c-3.73,1.31-7.54,2.56-11.33,3.71l.59,1.92c1.36-.42,2.71-.84,4.06-1.28h0l.1,0h0l.23-.07h0l.1,0h0l.1,0h0l.11,0h0l.1,0h0l.08,0h0l.22-.07h0l.09,0h0l.09,0h0l.22-.07h0l.09,0h0l.22-.07h0l.09,0h0l.09,0h0l.22-.07h0l.09,0h0l.22-.08h0l.1,0h0l.1,0h0l.23-.08h0l.1,0h0c1.35-.44,2.69-.9,4-1.37l-.66-1.89ZM508,671c-3.62,1.59-7.33,3.12-11,4.57l.73,1.86,1.57-.62h0l.25-.1h0l.06,0,0,0,.06,0,0,0,0,0,.1,0,0,0,.06,0h0l.07,0h0l.21-.09h0q4.26-1.71,8.45-3.55L508,671Zm21.46-10.39c-3.49,1.86-7.07,3.68-10.63,5.4l.87,1.8,3.92-1.93h0l.31-.16h0l.09,0h0l.09,0h0l.1,0h0l.09,0h0l.08,0h0l.08,0h0l.09-.05,0,0,.07,0,0,0,.07,0,0,0,.08,0h0l.09,0,0,0,.06,0,0,0,0,0,.05,0,0,0,.09-.05h0l0,0,0,0,.06,0,0,0,.22-.11h0l.07,0h0l.07,0h0l.24-.13h0l.07,0h0l.32-.16h0c1.22-.63,2.44-1.27,3.65-1.92l-.94-1.76Zm20.6-12c-3.34,2.12-6.77,4.21-10.19,6.2l1,1.73q5.19-3,10.25-6.24l-1.07-1.69ZM569.68,635c-3.17,2.37-6.42,4.71-9.68,7l1.14,1.64.05,0h0l.2-.13h0l.09-.06h0l.29-.2h0l.09-.06h0q4.56-3.17,9-6.49l-1.2-1.6Zm18.54-15c-3,2.6-6.05,5.18-9.13,7.67l1.26,1.55q1.32-1.05,2.61-2.13h0l.07-.05h0l.2-.17,0,0,0,0,0,0,0,0,0,0,.06-.05.06,0,0,0,.06,0,0,0,.05,0,0,0,.07-.05v0l.09-.07h0l.06-.06,0,0,.06-.05,0,0,.07-.06h0l.08-.07h0l.08-.06h0l.08-.07h0l.26-.22h0l.08-.07h0l.26-.22h0l.08-.07h0l.17-.15h0l.08-.07h0l.08-.07h0l.17-.15h0l.08-.06v0l.08-.06h0l.17-.14,0,0,.06-.06h0l.06-.06,0,0,.08-.07h0l.06-.06,0,0,0,0,0,0,.05-.05,0,0,.07,0,0,0,0,0,0,0,0,0,.06-.05h0l.19-.17h0l.06-.06h0c.78-.67,1.56-1.34,2.33-2l-1.31-1.5Zm17.34-16.37c-2.77,2.83-5.64,5.63-8.51,8.35l1.37,1.45c.66-.62,1.33-1.25,2-1.89h0l.24-.23,0,0,.12-.11,0,0,.07-.06L601,611,601,611l.06-.07.06,0,.09-.09,0,0,.07-.08,0,0,.1-.1,0,0,.09-.09,0,0,.12-.11,0,0,.12-.12h0l.13-.12h0l.13-.13h0l.26-.26h0c1.43-1.4,2.84-2.81,4.25-4.24h0l.25-.25h0l-1.43-1.41ZM621.61,586c-2.55,3-5.19,6-7.85,9l1.48,1.35q4-4.44,7.9-9L621.61,586Zm14.67-18.8c-2.31,3.21-4.72,6.42-7.15,9.54L630.7,578l.69-.89h0l0-.05,0,0,0,0,0-.06,0,0q3.24-4.2,6.34-8.5l-1.62-1.17Zm13.19-19.86c-2.06,3.37-4.21,6.76-6.4,10l1.66,1.11q1.63-2.44,3.22-4.94h0l0-.07v0l0-.06,0,0,.06-.1,0,0,0,0,0-.06,0,0,0-.06,0,0,.12-.19h0l.05-.09h0c.91-1.44,1.8-2.87,2.69-4.33l-1.71-1Zm11.64-20.81c-1.8,3.52-3.69,7.06-5.62,10.52l1.75,1c.42-.76.85-1.52,1.26-2.28v0l0-.07h0l.12-.22v0l0-.06,0,0,0-.06,0,0,.11-.2,0,0,0,0,0-.05,0,0,0-.05,0-.07,0,0,0-.05,0,0,0-.05,0,0,0,0,0-.08,0,0,0-.07,0,0,0-.06v0l0-.08v0l.06-.1h0l0-.08v0l0-.08v0l0-.09h0l.05-.11h0l.06-.09v0l.05-.09h0l.11-.21h0l0-.09v0l0-.09h0l.11-.2h0l.05-.09h0l.22-.42h0l.17-.31h0c.77-1.45,1.53-2.92,2.27-4.38l-1.78-.91Zm10-21.64c-1.52,3.65-3.13,7.33-4.8,10.92l1.82.84c.91-2,1.8-3.95,2.67-5.95h0c.74-1.67,1.45-3.35,2.16-5l-1.85-.77Zm8.32-22.34c-1.24,3.76-2.57,7.54-4,11.25l1.88.7c.47-1.27.94-2.54,1.39-3.82h0c0-.11.08-.21.12-.33v0l0-.08v0l0-.08v0l0-.09,0-.05,0-.05,0-.06v0l0-.06v0l0-.13v0l0-.08v0l0-.08h0q.84-2.39,1.64-4.78v0c0-.11.07-.22.11-.33v0l0-.07v0l0-.06,0-.05,0-.09,0-.06v0l0-.05,0-.05,0-.08v0l0-.11h0l0-.09v0l.07-.22-1.9-.62ZM686,459.66c-.94,3.85-2,7.72-3.07,11.53l1.93.55q1.18-4.14,2.26-8.31v0l0-.08h0l0-.14v-.09l0-.06v0l0-.07v0l0-.11v0l0-.09v0l0-.1h0c.2-.79.4-1.59.59-2.39l-1.94-.48Zm4.79-23.35c-.64,3.9-1.38,7.85-2.17,11.72l2,.4c.17-.8.33-1.61.49-2.42h0l0-.1v0l0-.11v-.21l0-.06v0l0-.16h0c.56-2.88,1.08-5.78,1.56-8.68l-2-.33Zm3-23.65c-.35,3.94-.77,7.93-1.27,11.85l2,.25.09-.75h0v-.26l0-.1v-.28h0c.43-3.49.79-7,1.1-10.53l-2-.17ZM695,388.84c-.05,4-.17,8-.37,11.92l2,.1c0-.61.06-1.22.08-1.83h0v-.69q.16-4,.23-7.95h0v-.09h0v-1.08h0c0-.1,0-.21,0-.31l-2,0Zm1.39-24-2,.13c.25,3.94.43,7.95.53,11.91l2-.05q-.17-6-.53-12ZM693.94,341l-2,.28c.55,3.91,1,7.9,1.43,11.84l2-.21c-.08-.79-.16-1.57-.25-2.36h0v-.11h0l0-.23v-.56c-.32-2.89-.69-5.76-1.09-8.63Zm-4.24-23.62-2,.43c.85,3.87,1.63,7.8,2.33,11.69l2-.35,0-.08v-.31l-.05-.24v-.12l0-.26s0,0,0,0V328h0c-.22-1.17-.44-2.34-.67-3.5h0c0-.11,0-.23-.07-.35v0l0-.08v0l-.05-.24v0l0-.07v0l0-.07v0l0-.12v-.21l0-.09v0l0-.1v-.15l0-.1h0l0-.12h0l0-.11h0l-.07-.35h0c-.33-1.61-.67-3.22-1-4.82Zm-6-23.22-1.91.58c1.14,3.79,2.22,7.65,3.22,11.48l1.93-.51c-.19-.74-.39-1.49-.59-2.23h0l-.06-.22v0l0-.07V303l0-.05v0l0-.13v0l0-.07v0q-.76-2.81-1.57-5.58h0l0-.08v0l0-.14v0l0-.06v0l0-.06,0-.06v0l0-.1v0l0-.09v0l0-.1h0c-.2-.7-.41-1.39-.62-2.09Zm-7.81-22.68-1.86.72c1.43,3.69,2.8,7.45,4.09,11.19l1.89-.65-.56-1.63h0l0-.1h0l0-.11h0l0-.1,0,0v-.06l0-.05,0,0-.08-.24h0l0-.09h0q-1.58-4.42-3.26-8.78Zm-9.53-22-1.81.86c1.72,3.57,3.38,7.22,5,10.85l1.84-.8L669.83,257v0l0-.06,0,0,0-.06,0-.09,0,0,0-.05,0-.05,0-.06v0c-1.07-2.38-2.16-4.73-3.28-7.07Zm-11.19-21.23-1.74,1c2,3.43,3.92,6.94,5.77,10.44l1.77-.93q-2.5-4.74-5.15-9.37h0l-.18-.32h0l0-.06v0l0-.06,0,0,0,0,0-.08,0-.05,0,0,0,0,0-.06v0l-.15-.26Zm-12.79-20.3-1.65,1.12c2.24,3.27,4.44,6.62,6.55,10l1.69-1.06-.06-.1v0l-.05-.07,0,0,0-.06,0,0,0-.06-.06-.09,0,0,0-.06,0,0,0-.06v0q-1.17-1.86-2.37-3.7h0l0-.07h0l-.19-.29,0,0,0-.06,0,0,0-.05,0,0-.06-.09,0,0,0-.05,0,0,0-.05,0,0,0,0,0-.09,0,0,0-.06,0,0,0-.06,0,0-.12-.19h0l-.06-.08v0l-.06-.08h0c-.83-1.25-1.66-2.48-2.5-3.72h0l-.2-.28v0l0,0Zm-14.29-19.28-1.56,1.25c2.48,3.09,4.93,6.27,7.28,9.44l1.61-1.19c-.59-.8-1.19-1.59-1.79-2.39v0l-.05-.06v0l0-.06v0l-.07-.09,0-.05,0,0,0,0,0,0,0,0,0,0-.13-.17v0L633,195v0l-.06-.07h0l-.14-.19h0l-.07-.09h0q-1.79-2.34-3.62-4.65h0l-.07-.09h0l-.14-.18h0l-.06-.07v0l-.06-.07v0l-.14-.17,0,0,0-.07,0,0-.05-.07,0,0-.06-.08h0l-.06-.08,0,0,0-.05,0,0,0-.06,0,0-.07-.08Zm-15.71-18.13-1.46,1.37c2.7,2.89,5.38,5.87,8,8.86l1.52-1.31c-.82-.95-1.65-1.89-2.48-2.82h0l-.12-.14h0l-.24-.27,0,0-.11-.13h0l-.11-.12,0,0-.11-.12,0,0-.09-.11,0,0-.1-.11,0,0-.08-.1,0,0-.08-.1,0,0-.1-.11,0,0-.07-.08,0-.05-.09-.1,0,0-.06-.07-.08-.08-.05-.07-.06-.06,0-.06-.09-.1,0,0-.1-.11-.05-.05-.06-.07,0,0-.11-.12,0,0-.07-.08v0l-.14-.14,0,0-.22-.24h0l-2.61-2.83Zm-17.05-16.89-1.35,1.48c2.91,2.67,5.81,5.44,8.63,8.23l1.4-1.43-.17-.17,0,0-.1-.1,0,0-.06-.06,0-.05-.11-.1,0-.05-.06-.06-.06,0-.09-.1,0,0-.11-.11,0,0-.07-.06,0,0-.11-.11,0,0-.07-.07,0,0-.12-.12,0,0-.13-.13,0,0-.08-.07,0,0L602,160l0,0-.24-.23,0,0-.24-.24h0l-.41-.4h0c-1.9-1.84-3.84-3.66-5.79-5.46ZM577,138.09l-1.24,1.57c3.11,2.45,6.22,5,9.23,7.55l1.3-1.52c-3-2.6-6.14-5.12-9.29-7.6ZM557.6,124l-1.11,1.66c3.28,2.2,6.57,4.5,9.77,6.83l1.18-1.62-.85-.61h0l-.08-.07h0l-.07,0,0,0-.06-.05h0l-.08-.06,0,0-.06,0,0,0,0,0,0,0,0,0-.2-.14h0l-.06,0h0q-4-2.87-8.08-5.6Zm-20.43-12.59-1,1.74c3.45,2,6.9,4,10.27,6.06l1-1.7-.23-.14h0l-.06,0,0,0,0,0-.06,0,0,0-.09-.06h0l-.08,0h0q-4.76-2.92-9.65-5.68Zm-21.33-11-.84,1.81c3.58,1.68,7.18,3.45,10.7,5.26l.92-1.78c-2-1-4-2-6-3h0l-.32-.16h0l-.07,0s0,0,0,0l-.23-.11h0l-.07,0,0,0-.06,0h0l-.21-.1,0,0-.06,0h0l-.06,0,0,0-.12-.06h0l-.06,0,0,0,0,0,0,0-.05,0-.08,0h0l-.07,0h0l-.07,0h0l-.08,0h0l-.1-.05h0l-.08,0,0,0-.08,0h0l-.21-.1h0l-.1-.05h0l-.1,0h0l-.32-.16h0l-1.57-.74Zm-22.11-9.32L493,93c3.7,1.4,7.43,2.89,11.07,4.42l.78-1.84L503.51,95h0l-.07,0h0l-.07,0h0l-.14-.06h0l-.06,0h0l-.06,0-.05,0,0,0-.1,0h0l-.08,0h0l-.07,0h0l-.2-.09h0l-.1,0h0q-4.22-1.73-8.51-3.35ZM471,83.49l-.56,1.92c3.8,1.11,7.63,2.3,11.38,3.55l.64-1.89q-2.51-.84-5-1.63h0l-.1,0h0l-.1,0h0l-.11,0h0l-.08,0h0l-.07,0h0l-.09,0,0,0-.07,0h-.05l-.05,0-.06,0h0l-.23-.07h0l-.07,0h0c-1.69-.53-3.4-1-5.11-1.54ZM447.7,77.67l-.41,2c3.87.81,7.78,1.71,11.61,2.67l.49-1.94c-1.21-.31-2.42-.6-3.63-.89h0l-.27-.06h0l-.07,0h-.14l-.06,0-.1,0h0l-.07,0h-.15l-.11,0h0l-.11,0h0l-.1,0h0c-2.26-.53-4.52-1-6.8-1.51Zm-23.66-4-.26,2c3.93.51,7.89,1.11,11.79,1.77l.34-2q-3.21-.54-6.43-1h0l-.11,0h0l-.11,0h0l-.1,0h-.93l-.15,0h0l-.08,0h0l-.36,0h0l-1.94-.27h0l-.37-.05h-.1l-.26,0h-.56l-.11,0H424Zm-23.89-2.2-.11,2c3.95.21,7.95.5,11.89.86l.18-2-.93-.08h-.1l-.23,0h-.21l-.24,0h0c-2.86-.25-5.71-.46-8.59-.63H401l-.26,0h0l-.56,0ZM383,71v2c1.7,0,3.42,0,5.12,0l0-2-1.29,0H383Z"/></svg>