<svg id="print" xmlns="http://www.w3.org/2000/svg" viewBox="0 0 768 768"><defs><style>.cls-1{fill:#efeff0;}.cls-2{fill:none;stroke:#efeff0;stroke-linejoin:bevel;stroke-width:5px;}</style></defs><title>ring-print1</title><path class="cls-1" d="M384,41A343.09,343.09,0,0,1,517.51,700.05,343.09,343.09,0,0,1,250.49,68,340.9,340.9,0,0,1,384,41m0-5C191.8,36,36,191.8,36,384S191.8,732,384,732,732,576.2,732,384,576.2,36,384,36Z"/><path class="cls-1" d="M383,84a299,299,0,1,1-116.77,23.57A298.14,298.14,0,0,1,383,84m0-5C214.55,79,78,215.55,78,384S214.55,689,383,689,688,552.45,688,384,551.45,79,383,79Z"/><line class="cls-2" x1="687.5" y1="385.5" x2="752.5" y2="385.5"/><line class="cls-2" x1="77.5" y1="384.5" x2="9.5" y2="384.5"/><line class="cls-2" x1="383.5" y1="15.5" x2="383.5" y2="79.5"/><line class="cls-2" x1="382.5" y1="756.5" x2="382.5" y2="689.5"/><line class="cls-2" x1="569.5" y1="195.5" x2="593" y2="172"/><line class="cls-2" x1="125.5" y1="332.5" x2="84.5" y2="332.5"/><line class="cls-2" x1="539.5" y1="580.5" x2="570" y2="611"/></svg>